<svg version="1.1" id="Layer_1" xmlns="http://www.w3.org/2000/svg"
	xmlns:xlink="http://www.w3.org/1999/xlink" x="0px" y="0px"
	width="100%" viewBox="0 0 134 146" enable-background="new 0 0 134 146" xml:space="preserve">
<path fill="#C544E5" opacity="1.000000" stroke="none" 
	d="
M66.000000,147.000000 
	C44.367847,147.000000 22.735693,147.000000 1.051770,147.000000 
	C1.051770,98.445419 1.051770,49.890762 1.051770,1.000000 
	C22.019701,1.000000 43.041191,1.000000 64.352341,1.357915 
	C63.834888,1.884725 63.035400,2.128731 62.219563,2.211492 
	C43.506901,4.109753 28.181250,12.472928 16.671175,27.194799 
	C-6.010857,56.206081 -0.715200,97.193024 28.414696,119.766602 
	C33.844227,123.974098 39.683968,127.608864 46.654099,129.171768 
	C47.754070,123.671043 46.196819,120.617287 41.433487,118.285851 
	C20.475594,108.027901 7.791481,83.260773 11.166946,60.029491 
	C16.720116,21.810369 56.459282,-0.492737 91.696983,15.448853 
	C113.795563,25.446285 125.276100,43.658321 125.524132,67.708466 
	C125.756088,90.198624 114.848991,107.276482 95.249809,118.147362 
	C90.331924,120.875122 89.212723,123.930756 89.526749,129.403503 
	C91.406929,128.755402 92.941116,128.352631 94.369835,127.713921 
	C104.915703,122.999474 113.665665,116.054535 120.705070,106.850548 
	C150.454956,67.952675 126.421043,9.381997 77.959206,2.704401 
	C75.932991,2.425206 73.984634,1.580989 72.000000,1.000000 
	C92.966423,1.000000 113.932838,1.000000 134.949631,1.000000 
	C134.949631,49.555229 134.949631,98.110519 134.949631,147.000000 
	C113.646935,147.000000 92.292122,147.000000 70.618431,146.675003 
	C74.937447,145.128418 78.703712,142.909988 79.342789,137.636215 
	C80.980431,124.122185 82.618256,110.606384 84.005608,97.065636 
	C84.229500,94.880379 83.661316,92.294922 82.606590,90.359024 
	C79.730644,85.080383 69.909660,82.548241 62.293144,84.738426 
	C54.724419,86.914871 51.556744,90.541138 52.118988,98.505989 
	C52.902725,109.608543 54.613770,120.642418 55.704422,131.727692 
	C56.397942,138.776566 58.586712,144.589600 66.000000,147.000000 
M111.994400,64.747757 
	C110.086853,43.411716 93.693634,25.929813 73.797340,24.014008 
	C51.766468,21.892660 32.008961,34.837280 26.084614,55.274174 
	C20.716917,73.790833 28.846287,95.795456 44.162437,103.561981 
	C44.555187,98.627754 44.470966,94.394569 40.789688,90.238258 
	C32.701462,81.106323 30.774689,70.087891 33.720528,58.423367 
	C37.224113,44.550369 49.632774,33.809807 63.379383,32.142239 
	C78.361191,30.324831 92.923561,37.803898 99.758347,50.826054 
	C106.760109,64.166344 105.128563,79.725685 94.822792,91.313416 
	C91.285011,95.291283 91.832100,99.109573 92.396118,104.092911 
	C105.836365,94.217857 112.234749,81.629654 111.994400,64.747757 
M54.081066,56.944901 
	C52.014229,64.678436 54.189846,71.240822 60.031807,74.894325 
	C65.500557,78.314438 73.008072,77.849617 77.760956,73.796669 
	C82.567474,69.697983 84.371910,63.510067 82.500511,57.543377 
	C80.742943,51.939602 75.606117,47.693413 69.631866,47.254108 
	C62.556843,46.733856 57.469395,49.855782 54.081066,56.944901 
z"/>
<path fill="#FFFFFF" opacity="1.000000" stroke="none" 
	d="
M71.562500,1.000000 
	C73.984634,1.580989 75.932991,2.425206 77.959206,2.704401 
	C126.421043,9.381997 150.454956,67.952675 120.705070,106.850548 
	C113.665665,116.054535 104.915703,122.999474 94.369835,127.713921 
	C92.941116,128.352631 91.406929,128.755402 89.526749,129.403503 
	C89.212723,123.930756 90.331924,120.875122 95.249809,118.147362 
	C114.848991,107.276482 125.756088,90.198624 125.524132,67.708466 
	C125.276100,43.658321 113.795563,25.446285 91.696983,15.448853 
	C56.459282,-0.492737 16.720116,21.810369 11.166946,60.029491 
	C7.791481,83.260773 20.475594,108.027901 41.433487,118.285851 
	C46.196819,120.617287 47.754070,123.671043 46.654099,129.171768 
	C39.683968,127.608864 33.844227,123.974098 28.414696,119.766602 
	C-0.715200,97.193024 -6.010857,56.206081 16.671175,27.194799 
	C28.181250,12.472928 43.506901,4.109753 62.219563,2.211492 
	C63.035400,2.128731 63.834888,1.884725 64.820999,1.357915 
	C67.041664,1.000000 69.083336,1.000000 71.562500,1.000000 
z"/>
<path fill="#FEFDFF" opacity="1.000000" stroke="none" 
	d="
M66.399994,147.000000 
	C58.586712,144.589600 56.397942,138.776566 55.704422,131.727692 
	C54.613770,120.642418 52.902725,109.608543 52.118988,98.505989 
	C51.556744,90.541138 54.724419,86.914871 62.293144,84.738426 
	C69.909660,82.548241 79.730644,85.080383 82.606590,90.359024 
	C83.661316,92.294922 84.229500,94.880379 84.005608,97.065636 
	C82.618256,110.606384 80.980431,124.122185 79.342789,137.636215 
	C78.703712,142.909988 74.937447,145.128418 70.149773,146.675003 
	C68.933327,147.000000 67.866661,147.000000 66.399994,147.000000 
z"/>
<path fill="#FFFFFF" opacity="1.000000" stroke="none" 
	d="
M112.002502,65.206619 
	C112.234749,81.629654 105.836365,94.217857 92.396118,104.092911 
	C91.832100,99.109573 91.285011,95.291283 94.822792,91.313416 
	C105.128563,79.725685 106.760109,64.166344 99.758347,50.826054 
	C92.923561,37.803898 78.361191,30.324831 63.379383,32.142239 
	C49.632774,33.809807 37.224113,44.550369 33.720528,58.423367 
	C30.774689,70.087891 32.701462,81.106323 40.789688,90.238258 
	C44.470966,94.394569 44.555187,98.627754 44.162437,103.561981 
	C28.846287,95.795456 20.716917,73.790833 26.084614,55.274174 
	C32.008961,34.837280 51.766468,21.892660 73.797340,24.014008 
	C93.693634,25.929813 110.086853,43.411716 112.002502,65.206619 
z"/>
<path fill="#FFFFFF" opacity="1.000000" stroke="none" 
	d="
M54.214233,56.576721 
	C57.469395,49.855782 62.556843,46.733856 69.631866,47.254108 
	C75.606117,47.693413 80.742943,51.939602 82.500511,57.543377 
	C84.371910,63.510067 82.567474,69.697983 77.760956,73.796669 
	C73.008072,77.849617 65.500557,78.314438 60.031807,74.894325 
	C54.189846,71.240822 52.014229,64.678436 54.214233,56.576721 
z"/>
</svg>