<svg version="1.1" id="Layer_1" xmlns="http://www.w3.org/2000/svg"
	xmlns:xlink="http://www.w3.org/1999/xlink" x="0px" y="0px"
	width="100%" viewBox="0 0 349 349" enable-background="new 0 0 349 349" xml:space="preserve">
<path fill="#794CF8" opacity="1.000000" stroke="none" 
	d="
M194.000000,1.000000 
	C245.983597,1.000000 297.967194,1.000000 349.975403,1.000000 
	C349.975403,117.280220 349.975403,233.560440 349.975403,349.920349 
	C233.756531,349.920349 117.512978,349.920349 1.134713,349.920349 
	C1.134713,233.666763 1.134713,117.333405 1.127512,1.000026 
	C62.434433,1.000000 123.748558,1.000000 185.362091,1.301189 
	C178.783310,4.076210 175.312775,9.075953 174.788757,16.263363 
	C174.583298,19.081572 174.186386,21.899052 174.185165,24.716995 
	C174.151886,101.497025 174.155685,178.277069 174.173721,255.057114 
	C174.174225,257.215881 174.277496,259.389282 174.537888,261.530975 
	C176.181000,275.046570 181.760254,279.822754 195.318726,277.885529 
	C225.043213,273.638428 251.828659,262.452057 273.759460,241.524002 
	C307.527679,209.299774 321.464172,169.287155 315.916138,123.385979 
	C309.102081,67.009926 278.037811,28.723141 224.706940,9.044999 
	C214.826935,5.399459 204.253433,3.633473 194.000000,1.000000 
M38.446323,83.499840 
	C38.446209,118.302292 38.421062,153.104797 38.476810,187.907150 
	C38.483997,192.393036 38.622280,196.915802 39.200974,201.356186 
	C40.522606,211.497238 47.190670,216.577271 57.355698,215.251144 
	C61.464653,214.715088 65.537064,213.767044 69.565041,212.761795 
	C139.733276,195.250504 167.973282,126.469131 144.789322,69.051857 
	C129.094070,30.181049 97.959457,10.362461 57.821892,3.146860 
	C52.566811,2.202146 46.884544,2.735080 43.677834,7.317436 
	C41.156864,10.919879 39.232258,15.741558 39.106045,20.081638 
	C38.501324,40.876503 38.598888,61.691788 38.446323,83.499840 
M42.664421,264.224609 
	C40.745934,272.415222 37.356159,280.575287 37.185104,288.802216 
	C36.674019,313.382690 48.047222,331.986664 70.105286,342.553925 
	C92.512367,353.288391 114.503212,350.526855 133.548096,334.369781 
	C151.940292,318.766388 157.976562,298.284393 152.218597,274.918335 
	C146.299515,250.898376 126.463478,234.319016 101.358833,231.333710 
	C77.883400,228.542130 55.256462,241.024994 42.664421,264.224609 
z"/>
<path fill="#FFFFFF" opacity="1.000000" stroke="none" 
	d="
M193.555832,1.000000 
	C204.253433,3.633473 214.826935,5.399459 224.706940,9.044999 
	C278.037811,28.723141 309.102081,67.009926 315.916138,123.385979 
	C321.464172,169.287155 307.527679,209.299774 273.759460,241.524002 
	C251.828659,262.452057 225.043213,273.638428 195.318726,277.885529 
	C181.760254,279.822754 176.181000,275.046570 174.537888,261.530975 
	C174.277496,259.389282 174.174225,257.215881 174.173721,255.057114 
	C174.155685,178.277069 174.151886,101.497025 174.185165,24.716995 
	C174.186386,21.899052 174.583298,19.081572 174.788757,16.263363 
	C175.312775,9.075953 178.783310,4.076210 185.830750,1.301189 
	C188.370560,1.000000 190.741104,1.000000 193.555832,1.000000 
z"/>
<path fill="#FFFFFF" opacity="1.000000" stroke="none" 
	d="
M38.446617,82.999832 
	C38.598888,61.691788 38.501324,40.876503 39.106045,20.081638 
	C39.232258,15.741558 41.156864,10.919879 43.677834,7.317436 
	C46.884544,2.735080 52.566811,2.202146 57.821892,3.146860 
	C97.959457,10.362461 129.094070,30.181049 144.789322,69.051857 
	C167.973282,126.469131 139.733276,195.250504 69.565041,212.761795 
	C65.537064,213.767044 61.464653,214.715088 57.355698,215.251144 
	C47.190670,216.577271 40.522606,211.497238 39.200974,201.356186 
	C38.622280,196.915802 38.483997,192.393036 38.476810,187.907150 
	C38.421062,153.104797 38.446209,118.302292 38.446617,82.999832 
z"/>
<path fill="#FFFFFF" opacity="1.000000" stroke="none" 
	d="
M42.821037,263.883057 
	C55.256462,241.024994 77.883400,228.542130 101.358833,231.333710 
	C126.463478,234.319016 146.299515,250.898376 152.218597,274.918335 
	C157.976562,298.284393 151.940292,318.766388 133.548096,334.369781 
	C114.503212,350.526855 92.512367,353.288391 70.105286,342.553925 
	C48.047222,331.986664 36.674019,313.382690 37.185104,288.802216 
	C37.356159,280.575287 40.745934,272.415222 42.821037,263.883057 
z"/>
</svg>