<svg version="1.1" id="Layer_1" xmlns="http://www.w3.org/2000/svg"
	xmlns:xlink="http://www.w3.org/1999/xlink" x="0px" y="0px"
	width="100%" viewBox="0 0 258 258" enable-background="new 0 0 258 258" xml:space="preserve">
<path fill="#FFFFFF" opacity="1.000000" stroke="none" 
	d="
M1.000000,136.000000 
	C1.000000,132.307098 1.000000,128.614182 1.373178,124.280869 
	C3.126154,106.904404 6.905670,90.800392 14.105905,75.544418 
	C43.027359,14.265195 116.592422,-14.184314 178.510880,12.007750 
	C233.515625,35.275253 265.027588,91.816383 255.891785,150.850372 
	C247.977432,201.991455 206.814224,245.135513 156.212006,255.300873 
	C149.818329,256.585266 143.404495,257.769409 137.000000,259.000000 
	C131.645065,259.000000 126.290138,259.000000 120.311043,258.627380 
	C117.390816,257.886047 115.103264,257.450104 112.797455,257.158447 
	C58.385281,250.276001 12.924902,206.758850 3.846756,152.847519 
	C2.901013,147.231140 1.949069,141.615814 1.000000,136.000000 
M156.617706,98.843941 
	C172.543945,101.964111 187.857178,106.863487 202.225006,114.521790 
	C203.837875,115.381493 205.448227,116.302223 207.161163,116.907761 
	C213.147263,119.023872 220.094315,116.586494 222.270508,111.724495 
	C224.776184,106.126389 222.677887,99.505951 217.053345,96.170044 
	C213.339279,93.967224 209.462891,92.006096 205.542465,90.188454 
	C183.552292,79.993027 160.271713,74.772667 136.263397,72.416565 
	C107.679031,69.611374 79.404724,71.109573 51.600574,78.697723 
	C43.915779,80.795029 40.120598,86.967270 42.093605,93.634056 
	C43.969929,99.974144 50.521931,103.172958 57.838810,101.158401 
	C90.285591,92.224861 122.963760,92.750504 156.617706,98.843941 
M126.452621,134.949463 
	C148.265213,137.098526 168.919601,143.002411 188.054642,153.879547 
	C195.252899,157.971313 200.765701,157.177322 204.020859,151.691223 
	C207.266434,146.221268 205.245453,141.279144 197.406555,137.113251 
	C153.303314,113.675156 107.036110,109.038315 58.898312,121.608047 
	C52.281422,123.335846 49.384205,128.499664 51.160519,134.404633 
	C52.664989,139.405930 58.257664,141.997665 64.244087,140.205444 
	C84.318268,134.195602 104.761513,132.648239 126.452621,134.949463 
M141.944901,159.488251 
	C122.126472,155.590363 102.218666,155.729889 82.302299,158.446457 
	C75.389412,159.389374 68.522293,160.778244 61.707836,162.294128 
	C57.082336,163.323074 54.489132,167.589966 55.494335,171.611664 
	C56.572445,175.925049 60.360058,178.388977 64.948143,177.652725 
	C66.915573,177.337021 68.842766,176.778732 70.799347,176.385971 
	C107.737915,168.970840 143.624130,169.992813 177.263031,189.506363 
	C181.868149,192.177734 186.251328,191.036270 188.453461,187.054993 
	C190.682236,183.025497 189.320053,178.760162 184.882187,176.084290 
	C171.789963,168.190109 157.731796,162.773697 141.944901,159.488251 
z"/>
<path fill="#12BD4E" opacity="1.000000" stroke="none" 
	d="
M137.468658,259.000000 
	C143.404495,257.769409 149.818329,256.585266 156.212006,255.300873 
	C206.814224,245.135513 247.977432,201.991455 255.891785,150.850372 
	C265.027588,91.816383 233.515625,35.275253 178.510880,12.007750 
	C116.592422,-14.184314 43.027359,14.265195 14.105905,75.544418 
	C6.905670,90.800392 3.126154,106.904404 1.373178,123.820221 
	C1.000000,83.023590 1.000000,42.047176 1.000000,1.035381 
	C86.926926,1.035381 172.853882,1.035381 258.890411,1.035381 
	C258.890411,86.877335 258.890411,172.754868 258.890411,259.000000 
	C218.646515,259.000000 178.291916,259.000000 137.468658,259.000000 
z"/>
<path fill="#12BD4E" opacity="1.000000" stroke="none" 
	d="
M1.000000,136.468658 
	C1.949069,141.615814 2.901013,147.231140 3.846756,152.847519 
	C12.924902,206.758850 58.385281,250.276001 112.797455,257.158447 
	C115.103264,257.450104 117.390816,257.886047 119.843437,258.627380 
	C80.405159,259.000000 40.810322,259.000000 1.000000,259.000000 
	C1.000000,218.312698 1.000000,177.625000 1.000000,136.468658 
z"/>
<path fill="#14BD4F" opacity="1.000000" stroke="none" 
	d="
M156.200897,98.750946 
	C122.963760,92.750504 90.285591,92.224861 57.838810,101.158401 
	C50.521931,103.172958 43.969929,99.974144 42.093605,93.634056 
	C40.120598,86.967270 43.915779,80.795029 51.600574,78.697723 
	C79.404724,71.109573 107.679031,69.611374 136.263397,72.416565 
	C160.271713,74.772667 183.552292,79.993027 205.542465,90.188454 
	C209.462891,92.006096 213.339279,93.967224 217.053345,96.170044 
	C222.677887,99.505951 224.776184,106.126389 222.270508,111.724495 
	C220.094315,116.586494 213.147263,119.023872 207.161163,116.907761 
	C205.448227,116.302223 203.837875,115.381493 202.225006,114.521790 
	C187.857178,106.863487 172.543945,101.964111 156.200897,98.750946 
z"/>
<path fill="#15BD50" opacity="1.000000" stroke="none" 
	d="
M125.997414,134.917633 
	C104.761513,132.648239 84.318268,134.195602 64.244087,140.205444 
	C58.257664,141.997665 52.664989,139.405930 51.160519,134.404633 
	C49.384205,128.499664 52.281422,123.335846 58.898312,121.608047 
	C107.036110,109.038315 153.303314,113.675156 197.406555,137.113251 
	C205.245453,141.279144 207.266434,146.221268 204.020859,151.691223 
	C200.765701,157.177322 195.252899,157.971313 188.054642,153.879547 
	C168.919601,143.002411 148.265213,137.098526 125.997414,134.917633 
z"/>
<path fill="#16BE50" opacity="1.000000" stroke="none" 
	d="
M142.348541,159.613159 
	C157.731796,162.773697 171.789963,168.190109 184.882187,176.084290 
	C189.320053,178.760162 190.682236,183.025497 188.453461,187.054993 
	C186.251328,191.036270 181.868149,192.177734 177.263031,189.506363 
	C143.624130,169.992813 107.737915,168.970840 70.799347,176.385971 
	C68.842766,176.778732 66.915573,177.337021 64.948143,177.652725 
	C60.360058,178.388977 56.572445,175.925049 55.494335,171.611664 
	C54.489132,167.589966 57.082336,163.323074 61.707836,162.294128 
	C68.522293,160.778244 75.389412,159.389374 82.302299,158.446457 
	C102.218666,155.729889 122.126472,155.590363 142.348541,159.613159 
z"/>
</svg>