<?xml version="1.0" standalone="no"?>
<!DOCTYPE svg PUBLIC "-//W3C//DTD SVG 20010904//EN" "http://www.w3.org/TR/2001/REC-SVG-20010904/DTD/svg10.dtd">
<svg version="1.0" xmlns="http://www.w3.org/2000/svg"
  width="431.000000pt" height="431.000000pt" viewBox="0 0 431.000000 431.000000"
  preserveAspectRatio="xMidYMid meet">
  <metadata> Created by potrace 1.14, written by Peter Selinger 2001-2017 </metadata>
  <g transform="translate(0.000000,431.000000) scale(0.100000,-0.100000)"
    fill="#000000" stroke="none">
    <path
      d="M424 4270 c-107 -15 -179 -51 -272 -136 -35 -31 -72 -75 -83 -97 -75
-145 -85 -357 -23 -478 31 -63 43 -77 194 -232 97 -99 124 -134 122 -151 -4
-31 23 -58 52 -50 18 4 37 -11 107 -87 46 -51 95 -104 109 -119 83 -87 111
-124 105 -139 -14 -34 -13 -50 4 -65 14 -13 20 -13 43 -2 26 14 29 12 197
-152 113 -110 171 -174 171 -188 0 -25 18 -44 43 -44 12 0 90 -70 197 -178
147 -148 176 -181 170 -198 -12 -31 13 -58 48 -51 27 5 41 -5 173 -139 79 -79
145 -149 147 -154 2 -5 -1 -17 -7 -28 -13 -25 19 -63 49 -57 25 5 52 -32 77
-105 14 -44 17 -77 14 -165 -11 -336 0 -431 65 -570 25 -53 78 -141 94 -155 3
-3 25 -32 50 -65 51 -68 156 -172 182 -181 10 -3 18 -9 18 -13 0 -4 35 -25 78
-47 42 -21 80 -43 84 -49 4 -5 8 -7 8 -3 0 3 28 -5 63 -19 206 -83 313 -103
553 -104 141 -1 182 2 246 20 43 11 84 25 90 30 7 6 68 47 136 92 155 102 325
265 405 389 132 205 187 416 174 676 -4 87 -12 130 -36 202 -76 226 -211 416
-403 563 -93 71 -208 135 -263 145 -21 4 -58 15 -80 25 -64 28 -96 31 -340 33
l-231 1 -59 35 c-39 23 -184 157 -434 400 -206 201 -411 403 -456 449 -259
270 -500 511 -640 639 -88 80 -205 189 -260 242 -114 109 -184 158 -276 194
-101 39 -220 75 -269 81 -25 4 -54 8 -65 9 -11 2 -43 0 -71 -4z m1760 -3466
c3 -8 2 -12 -4 -9 -6 3 -10 10 -10 16 0 14 7 11 14 -7z m26 -73 c-1 -10 -6 -7
-15 9 -19 33 -18 50 0 26 8 -11 15 -27 15 -35z" />
  </g>
</svg>